<svg width="80" height="13" viewBox="0 0 80 13" fill="none" xmlns="http://www.w3.org/2000/svg">
<path d="M0.53267 2.99254V1.09091H9.49219V2.99254H6.15234V12H3.87251V2.99254H0.53267ZM17.706 1.09091H20.0124V8.17543C20.0124 8.97088 19.8224 9.6669 19.4425 10.2635C19.0661 10.8601 18.5387 11.3253 17.8604 11.6591C17.1822 11.9893 16.392 12.1545 15.4901 12.1545C14.5845 12.1545 13.7926 11.9893 13.1143 11.6591C12.4361 11.3253 11.9087 10.8601 11.5323 10.2635C11.1559 9.6669 10.9677 8.97088 10.9677 8.17543V1.09091H13.2741V7.97834C13.2741 8.39382 13.3647 8.76314 13.5458 9.08629C13.7305 9.40945 13.9897 9.66335 14.3235 9.84801C14.6573 10.0327 15.0462 10.125 15.4901 10.125C15.9375 10.125 16.3263 10.0327 16.6566 9.84801C16.9904 9.66335 17.2479 9.40945 17.429 9.08629C17.6136 8.76314 17.706 8.39382 17.706 7.97834V1.09091ZM21.9101 12V1.09091H26.214C27.0379 1.09091 27.741 1.23828 28.3234 1.53303C28.9094 1.82422 29.355 2.23793 29.6604 2.77415C29.9694 3.30682 30.1238 3.93359 30.1238 4.65447C30.1238 5.37891 29.9676 6.00213 29.6551 6.52415C29.3426 7.04261 28.8898 7.44034 28.2968 7.71733C27.7073 7.99432 26.9935 8.13281 26.1555 8.13281H23.2737V6.27912H25.7826C26.2229 6.27912 26.5887 6.21875 26.8799 6.09801C27.1711 5.97727 27.3877 5.79616 27.5297 5.55469C27.6753 5.31321 27.7481 5.01314 27.7481 4.65447C27.7481 4.29226 27.6753 3.98686 27.5297 3.73828C27.3877 3.4897 27.1693 3.30149 26.8746 3.17365C26.5834 3.04226 26.2158 2.97656 25.7719 2.97656H24.2165V12H21.9101ZM27.8014 7.03551L30.5127 12H27.9665L25.3138 7.03551H27.8014ZM34.0603 1.09091V12H31.7538V1.09091H34.0603ZM45.0826 1.09091V12H43.0904L38.3443 5.13388H38.2644V12H35.9579V1.09091H37.9821L42.6909 7.9517H42.7868V1.09091H45.0826ZM54.2219 4.61719C54.1473 4.35795 54.0425 4.12891 53.9076 3.93004C53.7726 3.72763 53.6075 3.55717 53.4122 3.41868C53.2204 3.27663 53.0003 3.16832 52.7517 3.09375C52.5067 3.01918 52.235 2.98189 51.9367 2.98189C51.3792 2.98189 50.8891 3.12038 50.4665 3.39737C50.0475 3.67436 49.7208 4.07741 49.4864 4.60653C49.252 5.1321 49.1349 5.77486 49.1349 6.5348C49.1349 7.29474 49.2503 7.94105 49.4811 8.47372C49.7119 9.00639 50.0386 9.413 50.4612 9.69354C50.8838 9.97053 51.3827 10.109 51.958 10.109C52.48 10.109 52.9257 10.0167 53.295 9.83203C53.6679 9.64382 53.952 9.37926 54.1473 9.03835C54.3461 8.69744 54.4456 8.29439 54.4456 7.82919L54.9143 7.89844H52.1018V6.16193H56.6668V7.53622C56.6668 8.49503 56.4644 9.31889 56.0596 10.0078C55.6547 10.6932 55.0972 11.2223 54.387 11.5952C53.6768 11.9645 52.8635 12.1491 51.9474 12.1491C50.9246 12.1491 50.0262 11.9237 49.252 11.4727C48.4779 11.0181 47.8742 10.3736 47.441 9.53906C47.0113 8.70099 46.7964 7.70668 46.7964 6.55611C46.7964 5.67187 46.9243 4.88352 47.18 4.19105C47.4392 3.49503 47.8014 2.90554 48.2666 2.42259C48.7318 1.93963 49.2733 1.57209 49.8912 1.31996C50.5091 1.06783 51.1785 0.941761 51.8994 0.941761C52.5173 0.941761 53.0926 1.03232 53.6253 1.21342C54.1579 1.39098 54.6302 1.64311 55.0422 1.96982C55.4577 2.29652 55.7968 2.68537 56.0596 3.13636C56.3224 3.58381 56.491 4.07741 56.5656 4.61719H54.2219ZM63.4544 5.64524V7.44567H58.4792V5.64524H63.4544ZM67.737 1.09091V12H65.4306V1.09091H67.737ZM71.515 12H69.0434L72.8094 1.09091H75.7817L79.5423 12H77.0708L74.3382 3.58381H74.2529L71.515 12ZM71.3605 7.712H77.1986V9.51243H71.3605V7.712Z" fill="white"/>
</svg>
